<svg xmlns="http://www.w3.org/2000/svg" version="1.1" xmlns:xlink="http://www.w3.org/1999/xlink" xmlns:svgjs="http://svgjs.dev/svgjs" width="2000" height="303" viewBox="0 0 2000 303"><g transform="matrix(1,0,0,1,-1.2121212121212466,0.0346510442272745)"><svg viewBox="0 0 396 60" data-background-color="#000000" preserveAspectRatio="xMidYMid meet" height="303" width="2000" xmlns="http://www.w3.org/2000/svg" xmlns:xlink="http://www.w3.org/1999/xlink"><g id="tight-bounds" transform="matrix(1,0,0,1,0.2400000000000091,-0.006861592916294512)"><svg viewBox="0 0 395.52 60.01372318583259" height="60.01372318583259" width="395.52"><g><svg viewBox="0 0 487.0507495487293 73.90202483027336" height="60.01372318583259" width="395.52"><g transform="matrix(1,0,0,1,91.53074954872933,17.616472603748356)"><svg viewBox="0 0 395.52 38.66907962277665" height="38.66907962277665" width="395.52"><g id="textblocktransform"><svg viewBox="0 0 395.52 38.66907962277665" height="38.66907962277665" width="395.52" id="textblock"><g><svg viewBox="0 0 395.52 38.66907962277665" height="38.66907962277665" width="395.52"><g transform="matrix(1,0,0,1,0,0)"><svg width="395.52" viewBox="4.3 -38.99 408.99 39.99" height="38.66907962277665" data-palette-color="url(#2ffb9970-e4ce-4912-961d-4a19c29c859f)"></svg></g></svg></g></svg></g></svg></g><g><svg viewBox="0 0 82.40190790770271 73.90202483027336" height="73.90202483027336" width="82.40190790770271"><g><svg xmlns="http://www.w3.org/2000/svg" data-name="Layer 1" viewBox="1.5270166537925824 6.527016653792581 96.94610610181371 86.94596669241483" x="0" y="0" height="73.90202483027336" width="82.40190790770271" class="icon-icon-0" data-fill-palette-color="accent" id="icon-0"></svg></g></svg></g></svg></g><defs></defs><mask id="2328cb86-f2bb-4ac8-8584-c9b0b8c8b58b"><g id="SvgjsG1004"><svg viewBox="0 0 395.52 60.01372318583259" height="60.01372318583259" width="395.52"><g><svg viewBox="0 0 487.0507495487293 73.90202483027336" height="60.01372318583259" width="395.52"><g transform="matrix(1,0,0,1,91.53074954872933,17.616472603748356)"><svg viewBox="0 0 395.52 38.66907962277665" height="38.66907962277665" width="395.52"><g id="SvgjsG1003"><svg viewBox="0 0 395.52 38.66907962277665" height="38.66907962277665" width="395.52" id="SvgjsSvg1002"><g><svg viewBox="0 0 395.52 38.66907962277665" height="38.66907962277665" width="395.52"><g transform="matrix(1,0,0,1,0,0)"><svg width="395.52" viewBox="4.3 -38.99 408.99 39.99" height="38.66907962277665" data-palette-color="url(#2ffb9970-e4ce-4912-961d-4a19c29c859f)"><path d="M7.3-1.86L7.3-1.86Q9.99-0.49 12.6-0.49L12.6-0.49Q14.18-0.49 15.54-0.96 16.89-1.44 17.88-2.39 18.87-3.34 19.43-4.75 20-6.15 20-8.01L20-8.01Q20-9.4 19.7-10.44 19.41-11.47 18.58-12.46 17.75-13.45 16.26-14.58 14.77-15.7 12.35-17.26L12.35-17.26Q8.5-19.78 6.73-22.09 4.96-24.41 4.96-26.81L4.96-26.81Q4.96-29.15 5.93-30.92 6.91-32.69 8.51-33.87 10.11-35.06 12.12-35.66 14.14-36.25 16.21-36.25L16.21-36.25Q19.95-36.25 22.9-34.55L22.9-34.55Q22.22-30.76 20.51-27.2L20.51-27.2 19.85-27.54Q20-28.47 20.08-29.31 20.17-30.15 20.17-30.9 20.17-31.64 20.09-32.26 20.02-32.89 19.9-33.45L19.9-33.45Q17.94-34.59 15.7-34.59L15.7-34.59Q14.28-34.59 13-34.17 11.72-33.74 10.74-32.91 9.77-32.08 9.18-30.87 8.59-29.66 8.59-28.1L8.59-28.1Q8.59-27 8.98-26.05 9.38-25.1 10.19-24.15 11.01-23.19 12.24-22.17 13.48-21.14 15.16-19.9L15.16-19.9Q16.16-19.17 17.04-18.57 17.92-17.97 18.68-17.43 19.43-16.89 20.08-16.38 20.73-15.87 21.29-15.28L21.29-15.28Q24-12.43 24-8.64L24-8.64Q24-6.1 23.11-4.27 22.22-2.44 20.68-1.27 19.14-0.1 17.09 0.45 15.04 1 12.74 1L12.74 1Q8.62 1 4.3-0.66L4.3-0.66Q5.05-4.59 6.69-8.01L6.69-8.01 7.35-7.64Q7.06-6.27 7.06-4.3 7.06-2.32 7.3-1.86ZM51.19-2.44L51.19-17.04Q51.19-19.09 50.8-20.4 50.41-21.7 49.74-22.45 49.07-23.19 48.18-23.49 47.29-23.78 46.29-23.78L46.29-23.78Q45.07-23.78 44-23.56 42.94-23.34 41.88-22.89 40.82-22.44 39.72-21.77 38.62-21.09 37.35-20.19L37.35-20.19 37.35-3.34Q37.35-2.56 37.47-2.09 37.6-1.61 37.99-1.29 38.38-0.98 39.08-0.73 39.79-0.49 40.94-0.2L40.94-0.2 40.74 0.39Q39.33 0.2 38.34 0.1 37.35 0 36.35 0 35.35 0 33.49 0.39L33.49 0.39 33.35 0.15Q33.84-0.56 33.84-2.44L33.84-2.44 33.84-31.69Q33.84-33.33 33.68-34.42 33.52-35.52 33.12-36.18 32.71-36.84 32-37.11 31.3-37.38 30.5-37.38 29.71-37.38 29.54-37.35L29.54-37.35 29.44-37.79Q33.42-38.99 36.84-38.99L36.84-38.99Q37.35-37.7 37.35-36.21L37.35-36.21 37.35-21.9Q39.04-23.05 40.41-23.79 41.79-24.54 43-24.98 44.21-25.42 45.3-25.59 46.38-25.76 47.51-25.76L47.51-25.76Q49.05-25.76 50.33-25.35 51.61-24.95 52.54-24.04 53.46-23.12 54.03-21.63 54.59-20.14 54.69-17.94L54.69-17.94 54.69-2.76Q54.69-2.17 54.97-1.78 55.25-1.39 55.7-1.12 56.15-0.85 56.74-0.67 57.32-0.49 57.96-0.29L57.96-0.29 57.74 0.29Q56.37 0 54.54 0 52.71 0 50.85 0.39L50.85 0.39 50.71 0.15Q51.19-0.56 51.19-2.44L51.19-2.44ZM65.84-2.44L65.84-18.09Q65.84-21.56 65.02-22.74 64.2-23.93 61.54-23.75L61.54-23.75 61.45-24.19Q65.47-25.39 68.84-25.39L68.84-25.39Q69.36-24.12 69.36-22.61L69.36-22.61 69.36-4.39Q69.36-2.47 70.26-1.54 71.16-0.61 73.46-0.2L73.46-0.2 73.26 0.39Q70.45 0 68.93 0 67.4 0 65.5 0.39L65.5 0.39 65.35 0.15Q65.84-0.56 65.84-2.44L65.84-2.44ZM63.35-34.45L63.35-34.45Q65.67-35.79 68.6-36.69L68.6-36.69Q68.6-34.67 69.26-32.69L69.26-32.69 68.94-32.25Q66.62-32.1 64.11-30.96L64.11-30.96Q63.5-32.64 63.35-34.45ZM97.7-2.44L97.7-17.04Q97.7-19.09 97.31-20.4 96.92-21.7 96.24-22.45 95.57-23.19 94.68-23.49 93.79-23.78 92.79-23.78L92.79-23.78Q91.57-23.78 90.51-23.56 89.45-23.34 88.38-22.89 87.32-22.44 86.22-21.77 85.12-21.09 83.85-20.19L83.85-20.19 83.85-3.34Q83.85-2.56 83.98-2.09 84.1-1.61 84.49-1.29 84.88-0.98 85.59-0.73 86.3-0.49 87.44-0.2L87.44-0.2 87.25 0.39Q85.83 0.2 84.84 0.1 83.85 0 82.85 0 81.85 0 80 0.39L80 0.39 79.85 0.15Q80.34-0.56 80.34-2.44L80.34-2.44 80.34-31.69Q80.34-33.33 80.18-34.42 80.02-35.52 79.62-36.18 79.22-36.84 78.51-37.11 77.8-37.38 77.01-37.38 76.21-37.38 76.04-37.35L76.04-37.35 75.94-37.79Q79.92-38.99 83.34-38.99L83.34-38.99Q83.85-37.7 83.85-36.21L83.85-36.21 83.85-21.9Q85.54-23.05 86.92-23.79 88.3-24.54 89.51-24.98 90.72-25.42 91.8-25.59 92.89-25.76 94.01-25.76L94.01-25.76Q95.55-25.76 96.83-25.35 98.11-24.95 99.04-24.04 99.97-23.12 100.53-21.63 101.09-20.14 101.19-17.94L101.19-17.94 101.19-2.76Q101.19-2.17 101.47-1.78 101.75-1.39 102.2-1.12 102.65-0.85 103.24-0.67 103.83-0.49 104.46-0.29L104.46-0.29 104.24 0.29Q102.87 0 101.04 0 99.21 0 97.36 0.39L97.36 0.39 97.21 0.15Q97.7-0.56 97.7-2.44L97.7-2.44ZM127.7-17.65L127.7-2.76Q127.7-2.34 127.88-1.99 128.07-1.64 128.32-1.4 128.58-1.17 129.07-0.95 129.56-0.73 129.92-0.61 130.29-0.49 130.95-0.29L130.95-0.29 130.75 0.29Q129.19 0 127.65 0L127.65 0Q125.72 0 123.84 0.39L123.84 0.39 123.7 0.15Q124.21-0.56 124.21-2.44L124.21-2.44 124.21-4.05Q122.99-1.78 120.41-0.39 117.84 1 115.2 1L115.2 1Q112.39 1 110.67-0.45 108.95-1.9 108.95-4.76L108.95-4.76Q108.95-6.62 109.72-8.07 110.49-9.52 111.77-10.53 113.05-11.55 115.07-12.33 117.08-13.11 119.22-13.6 121.35-14.09 124.21-14.5L124.21-14.5 124.21-16.75Q124.21-23.46 118.91-23.46L118.91-23.46Q117.2-23.46 114.72-22.62 112.25-21.78 110.56-20.41L110.56-20.41 109.56-21.56Q111.68-23.24 114.6-24.34 117.52-25.44 120.06-25.44L120.06-25.44Q121.18-25.44 122.19-25.23 123.21-25.02 124.25-24.48 125.28-23.93 126.03-23.08 126.77-22.24 127.24-20.84 127.7-19.43 127.7-17.65L127.7-17.65ZM116.35-0.85L116.35-0.85Q118.47-0.85 120.79-2.26 123.11-3.66 124.21-5.76L124.21-5.76 124.21-13.21Q117.96-12.3 115.29-10.44 112.61-8.57 112.61-5L112.61-5Q112.61-2.83 113.54-1.84 114.47-0.85 116.35-0.85ZM138.83-2.44L138.83-18.09Q138.83-19.73 138.67-20.83 138.51-21.92 138.11-22.58 137.71-23.24 137-23.51 136.29-23.78 135.5-23.78 134.7-23.78 134.53-23.75L134.53-23.75 134.44-24.19Q138.42-25.39 141.83-25.39L141.83-25.39Q142.35-24.1 142.35-22.61L142.35-22.61 142.35-21.9Q143.76-22.85 144.96-23.56 146.15-24.27 147.31-24.76 148.47-25.24 149.69-25.49 150.92-25.73 152.38-25.73L152.38-25.73Q153.7-25.73 155-25.39 156.31-25.05 157.35-24.17 158.39-23.29 159.03-21.78 159.68-20.26 159.68-17.94L159.68-17.94 159.68-2.76Q159.68-2.17 159.96-1.78 160.24-1.39 160.69-1.12 161.14-0.85 161.73-0.67 162.32-0.49 162.95-0.29L162.95-0.29 162.73 0.29Q161.36 0 159.09 0L159.09 0Q157.7 0 155.85 0.39L155.85 0.39 155.7 0.15Q156.19-0.56 156.19-2.44L156.19-2.44 156.19-17.04Q156.19-19.09 155.8-20.4 155.41-21.7 154.74-22.45 154.06-23.19 153.17-23.49 152.28-23.78 151.28-23.78L151.28-23.78Q150.06-23.78 149-23.56 147.94-23.34 146.87-22.89 145.81-22.44 144.71-21.77 143.62-21.09 142.35-20.19L142.35-20.19 142.35-3.34Q142.35-2.56 142.47-2.09 142.59-1.61 142.98-1.29 143.37-0.98 144.08-0.73 144.79-0.49 145.93-0.2L145.93-0.2 145.74 0.39Q144.32 0.2 143.33 0.1 142.35 0 141.74 0L141.74 0Q140.34 0 138.49 0.39L138.49 0.39 138.34 0.15Q138.83-0.56 138.83-2.44L138.83-2.44ZM197.13 0.49L197.13 0.49 195.17 0Q192.78-7.67 189.98-14.54 187.19-21.41 183.23-30L183.23-30Q182.48-31.69 181.67-32.42 180.87-33.15 180-33.15 179.13-33.15 177.94-33.06L177.94-33.06 177.69-33.54Q181.79-35.6 184.77-35.6L184.77-35.6Q186.09-33.01 187.29-30.41 188.48-27.81 189.81-24.58 191.14-21.36 191.83-19.67 192.51-17.97 194.11-13.87 195.71-9.77 196.13-8.69L196.13-8.69Q196.88-6.91 197.08-4.76L197.08-4.76 197.49-4.76Q197.57-4.93 198.03-6.47 198.49-8.01 199.13-9.55L199.13-9.55 208.23-32.59Q208.38-33.52 207.42-33.89 206.45-34.25 204.33-34.06L204.33-34.06 204.18-34.5Q207.33-35.4 210.92-35.4L210.92-35.4Q211.12-35.4 211.2-35.24 211.29-35.08 211.24-34.91L211.24-34.91Q210.97-34.01 210.66-33.06 210.36-32.1 197.13 0.49ZM217.51-2.44L217.51-18.09Q217.51-21.56 216.69-22.74 215.87-23.93 213.21-23.75L213.21-23.75 213.11-24.19Q217.14-25.39 220.51-25.39L220.51-25.39Q221.02-24.12 221.02-22.61L221.02-22.61 221.02-4.39Q221.02-2.47 221.93-1.54 222.83-0.61 225.13-0.2L225.13-0.2 224.93 0.39Q222.12 0 220.6 0 219.07 0 217.17 0.39L217.17 0.39 217.02 0.15Q217.51-0.56 217.51-2.44L217.51-2.44ZM215.02-34.45L215.02-34.45Q217.34-35.79 220.27-36.69L220.27-36.69Q220.27-34.67 220.93-32.69L220.93-32.69 220.61-32.25Q218.29-32.1 215.78-30.96L215.78-30.96Q215.17-32.64 215.02-34.45ZM247.02-25L247.02-31.69Q247.02-33.35 246.88-34.33 246.73-35.3 246.28-36.04 245.83-36.77 244.97-37.06 244.12-37.35 242.73-37.35L242.73-37.35 242.63-37.79Q246.66-38.99 250.03-38.99L250.03-38.99Q250.51-37.7 250.51-36.21L250.51-36.21 250.51-4.39Q250.51-2.47 251.42-1.54 252.32-0.61 254.62-0.2L254.62-0.2 254.42 0.39Q251.61 0 249.93 0L249.93 0Q248.61 0 246.66 0.39L246.66 0.39 246.51 0.15Q247.02-0.56 247.02-2.44L247.02-2.44 247.02-2.66Q243.43 1 239.53 1L239.53 1Q237.45 1 235.54 0.12 233.62-0.76 232.13-2.31 230.64-3.86 229.75-6.19 228.86-8.52 228.86-11.25L228.86-11.25Q228.86-17.8 232.31-21.59 235.77-25.39 242.31-25.39L242.31-25.39Q244.36-25.39 247.02-25L247.02-25ZM247.02-4.44L247.02-22.29Q244.24-23.56 240.53-23.56L240.53-23.56Q238.62-23.56 237.23-23.03 235.84-22.51 234.98-21.61 234.11-20.7 233.6-19.27 233.08-17.85 232.9-16.26 232.72-14.67 232.72-12.55L232.72-12.55Q232.72-6.96 234.79-4.03 236.87-1.1 240.16-1.1L240.16-1.1Q243.75-1.1 247.02-4.44L247.02-4.44ZM281.2-22.19L281.2-6.81Q281.2-5.18 281.36-4.09 281.52-3 281.92-2.34 282.32-1.68 283.03-1.4 283.74-1.12 284.52-1.12 285.3-1.12 285.5-1.15L285.5-1.15 285.62-0.71Q281.59 0.49 278.2 0.49L278.2 0.49Q277.71-0.83 277.71-2.29L277.71-2.29 277.71-3.44Q276.42-2.29 275.3-1.46 274.19-0.63 273.12-0.09 272.05 0.46 270.92 0.73 269.8 1 268.51 1L268.51 1Q267.04 1 265.59 0.66 264.14 0.32 262.96-0.56 261.79-1.44 261.07-2.95 260.35-4.47 260.35-6.81L260.35-6.81 260.35-21.9Q260.35-22.88 259.53-23.39 258.72-23.9 257.1-24.34L257.1-24.34 257.3-24.95Q258.72-24.66 260.96-24.66L260.96-24.66Q262.35-24.66 264.21-25.05L264.21-25.05 264.35-24.8Q263.87-24.05 263.87-22.19L263.87-22.19 263.87-7.69Q263.87-5.66 264.33-4.36 264.79-3.05 265.58-2.29 266.36-1.54 267.41-1.26 268.46-0.98 269.63-0.98L269.63-0.98Q270.73-0.98 271.67-1.21 272.61-1.44 273.56-1.94 274.51-2.44 275.51-3.23 276.51-4.03 277.71-5.15L277.71-5.15 277.71-21.29Q277.71-22.05 277.58-22.52 277.44-23 277.06-23.33 276.68-23.66 275.98-23.9 275.27-24.15 274.12-24.44L274.12-24.44 274.32-25.05Q275.71-24.85 276.71-24.76 277.71-24.66 278.32-24.66L278.32-24.66Q279.71-24.66 281.57-25.05L281.57-25.05 281.71-24.8Q281.2-24.07 281.2-22.19L281.2-22.19ZM297.02-36.21L297.02-4.39Q297.02-2.47 297.92-1.54 298.83-0.61 301.12-0.2L301.12-0.2 300.92 0.39Q298.12 0 296.59 0 295.07 0 293.16 0.39L293.16 0.39 293.01 0.15Q293.5-0.56 293.5-2.44L293.5-2.44 293.5-31.69Q293.5-35.16 292.68-36.34 291.87-37.52 289.21-37.35L289.21-37.35 289.11-37.79Q293.14-38.99 296.51-38.99L296.51-38.99Q297.02-37.72 297.02-36.21L297.02-36.21ZM323.85-17.65L323.85-2.76Q323.85-2.34 324.03-1.99 324.21-1.64 324.47-1.4 324.73-1.17 325.21-0.95 325.7-0.73 326.07-0.61 326.43-0.49 327.09-0.29L327.09-0.29 326.9 0.29Q325.34 0 323.8 0L323.8 0Q321.87 0 319.99 0.39L319.99 0.39 319.84 0.15Q320.36-0.56 320.36-2.44L320.36-2.44 320.36-4.05Q319.14-1.78 316.56-0.39 313.98 1 311.35 1L311.35 1Q308.54 1 306.82-0.45 305.1-1.9 305.1-4.76L305.1-4.76Q305.1-6.62 305.87-8.07 306.64-9.52 307.92-10.53 309.2-11.55 311.21-12.33 313.23-13.11 315.36-13.6 317.5-14.09 320.36-14.5L320.36-14.5 320.36-16.75Q320.36-23.46 315.06-23.46L315.06-23.46Q313.35-23.46 310.87-22.62 308.39-21.78 306.71-20.41L306.71-20.41 305.71-21.56Q307.83-23.24 310.75-24.34 313.67-25.44 316.21-25.44L316.21-25.44Q317.33-25.44 318.34-25.23 319.35-25.02 320.39-24.48 321.43-23.93 322.17-23.08 322.92-22.24 323.38-20.84 323.85-19.43 323.85-17.65L323.85-17.65ZM312.49-0.85L312.49-0.85Q314.62-0.85 316.94-2.26 319.26-3.66 320.36-5.76L320.36-5.76 320.36-13.21Q314.11-12.3 311.43-10.44 308.76-8.57 308.76-5L308.76-5Q308.76-2.83 309.69-1.84 310.61-0.85 312.49-0.85ZM334.98-2.44L334.98-18.09Q334.98-19.73 334.82-20.83 334.66-21.92 334.26-22.58 333.85-23.24 333.15-23.51 332.44-23.78 331.64-23.78 330.85-23.78 330.68-23.75L330.68-23.75 330.58-24.19Q334.56-25.39 337.98-25.39L337.98-25.39Q338.49-24.1 338.49-22.61L338.49-22.61 338.49-21.9Q339.91-22.85 341.11-23.56 342.3-24.27 343.46-24.76 344.62-25.24 345.84-25.49 347.06-25.73 348.53-25.73L348.53-25.73Q349.85-25.73 351.15-25.39 352.46-25.05 353.5-24.17 354.53-23.29 355.18-21.78 355.83-20.26 355.83-17.94L355.83-17.94 355.83-2.76Q355.83-2.17 356.11-1.78 356.39-1.39 356.84-1.12 357.29-0.85 357.88-0.67 358.46-0.49 359.1-0.29L359.1-0.29 358.88 0.29Q357.51 0 355.24 0L355.24 0Q353.85 0 351.99 0.39L351.99 0.39 351.85 0.15Q352.34-0.56 352.34-2.44L352.34-2.44 352.34-17.04Q352.34-19.09 351.95-20.4 351.55-21.7 350.88-22.45 350.21-23.19 349.32-23.49 348.43-23.78 347.43-23.78L347.43-23.78Q346.21-23.78 345.15-23.56 344.08-23.34 343.02-22.89 341.96-22.44 340.86-21.77 339.76-21.09 338.49-20.19L338.49-20.19 338.49-3.34Q338.49-2.56 338.61-2.09 338.74-1.61 339.13-1.29 339.52-0.98 340.23-0.73 340.93-0.49 342.08-0.2L342.08-0.2 341.89 0.39Q340.47 0.2 339.48 0.1 338.49 0 337.88 0L337.88 0Q336.49 0 334.64 0.39L334.64 0.39 334.49 0.15Q334.98-0.56 334.98-2.44L334.98-2.44ZM366.98-2.44L366.98-31.69Q366.98-35.16 366.16-36.34 365.35-37.52 362.68-37.35L362.68-37.35 362.59-37.79Q366.62-38.99 369.98-38.99L369.98-38.99Q370.5-37.72 370.5-36.21L370.5-36.21 370.5-4.39Q370.5-2.47 371.4-1.54 372.3-0.61 374.6-0.2L374.6-0.2 374.4 0.39Q371.6 0 369.89 0L369.89 0Q368.54 0 366.64 0.39L366.64 0.39 366.49 0.15Q366.98-0.56 366.98-2.44L366.98-2.44ZM381.48-1.15L381.48-1.15 372.45-13.04 372.45-13.6 381.48-22.71Q382.17-23.46 380.97-23.85L380.97-23.85Q379.9-24.22 377.89-24.05L377.89-24.05 377.75-24.66Q380.87-25.29 385-25.39L385-25.39 385.39-24.66 375.23-14.5Q384.71-2.61 385.8-1.82 386.9-1.03 388.54-0.66L388.54-0.66 388.49 0.1Q384.49-0.2 382.44 0.39L382.44 0.39 382.09 0.2Q382.14-0.34 381.48-1.15ZM410.05-17.65L410.05-2.76Q410.05-2.34 410.23-1.99 410.41-1.64 410.67-1.4 410.92-1.17 411.41-0.95 411.9-0.73 412.27-0.61 412.63-0.49 413.29-0.29L413.29-0.29 413.1 0.29Q411.53 0 410 0L410 0Q408.07 0 406.19 0.39L406.19 0.39 406.04 0.15Q406.55-0.56 406.55-2.44L406.55-2.44 406.55-4.05Q405.33-1.78 402.76-0.39 400.18 1 397.55 1L397.55 1Q394.74 1 393.02-0.45 391.3-1.9 391.3-4.76L391.3-4.76Q391.3-6.62 392.06-8.07 392.83-9.52 394.12-10.53 395.4-11.55 397.41-12.33 399.43-13.11 401.56-13.6 403.7-14.09 406.55-14.5L406.55-14.5 406.55-16.75Q406.55-23.46 401.26-23.46L401.26-23.46Q399.55-23.46 397.07-22.62 394.59-21.78 392.91-20.41L392.91-20.41 391.91-21.56Q394.03-23.24 396.95-24.34 399.86-25.44 402.4-25.44L402.4-25.44Q403.53-25.44 404.54-25.23 405.55-25.02 406.59-24.48 407.63-23.93 408.37-23.08 409.12-22.24 409.58-20.84 410.05-19.43 410.05-17.65L410.05-17.65ZM398.69-0.85L398.69-0.85Q400.82-0.85 403.14-2.26 405.46-3.66 406.55-5.76L406.55-5.76 406.55-13.21Q400.3-12.3 397.63-10.44 394.96-8.57 394.96-5L394.96-5Q394.96-2.83 395.89-1.84 396.81-0.85 398.69-0.85Z" opacity="1" transform="matrix(1,0,0,1,0,0)" fill="white" class="wordmark-text-0" id="SvgjsPath1001"></path></svg></g></svg></g></svg></g></svg></g><g><svg viewBox="0 0 82.40190790770271 73.90202483027336" height="73.90202483027336" width="82.40190790770271"><g><svg xmlns="http://www.w3.org/2000/svg" data-name="Layer 1" viewBox="1.5270166537925824 6.527016653792581 96.94610610181371 86.94596669241483" x="0" y="0" height="73.90202483027336" width="82.40190790770271" class="icon-icon-0" data-fill-palette-color="accent" id="SvgjsSvg1000"><g data-name="Group" fill="black"><path data-name="Compound Path" d="M94.5 49a4 4 0 1 0-3.9-5H67.2a16.5 16.5 0 0 0-2.4-6H82.6a4 4 0 1 0 0-2H63.3l-0.3-0.4V15.5H77.1a4 4 0 1 0 0-1.9H62a1 1 0 0 0-1 1V33.9a16.6 16.6 0 0 0-7.1-3.1 1 1 0 0 0 0.1-0.3V22.4a4 4 0 1 0-2 0v8.1H50.9a16.8 16.8 0 0 0-4.9 0.7V14.4a4 4 0 1 0-2 0V31.5a1 1 0 0 0 0.1 0.5A16.5 16.5 0 0 0 38 36.7V22.4a4 4 0 1 0-2 0V37.5H12.5v-14h0a4 4 0 1 0-1.9 0h0v15a1 1 0 0 0 1 1H36.1l-0.4 0.9a13.5 13.5 0 0 0-10.9 6.2H17.4a4 4 0 1 0 0 2h6.4a13.4 13.4 0 0 0-1.1 5.4c0 0.2 0 0.4 0 0.6H9.4a4 4 0 1 0 0 2H22.8a13.5 13.5 0 0 0 2.8 6H17.4a4 4 0 1 0 0 2H27.7a13.5 13.5 0 0 0 8.4 3h0v15H21.9a4 4 0 1 0 0 1.9H37a1 1 0 0 0 1-1v-16h7V77.6a4 4 0 1 0 2 0V67.5h6V85.6a4 4 0 1 0 2 0V67.5h6V77.6a4 4 0 1 0 2 0V67.5h3.6A10.8 10.8 0 0 0 75.3 63H89.5V77h0a4 4 0 1 0 1.9 0h0V62a1 1 0 0 0-1-1h-14a10.7 10.7 0 0 0 0.6-7h5.6a4 4 0 1 0 0-2H76.4a10.9 10.9 0 0 0-7.6-6H90.6A4 4 0 0 0 94.5 49Zm-8-14a2 2 0 1 1-2 2A2 2 0 0 1 86.5 35ZM81 12.5a2 2 0 1 1-2 2A2 2 0 0 1 81 12.5Zm-30 6a2 2 0 1 1 2 2A2 2 0 0 1 51 18.5Zm-8-8a2 2 0 1 1 2 2A2 2 0 0 1 43 10.5Zm-33.5 9a2 2 0 1 1 2 2A2 2 0 0 1 9.5 19.5Zm4 30a2 2 0 1 1 2-2A2 2 0 0 1 13.5 49.5Zm-8 8a2 2 0 1 1 2-2A2 2 0 0 1 5.5 57.5ZM18 85.5a2 2 0 1 1 2-2A2 2 0 0 1 18 85.5Zm30-4a2 2 0 1 1-2-2A2 2 0 0 1 48 81.5Zm8 8a2 2 0 1 1-2-2A2 2 0 0 1 56 89.5Zm8-8a2 2 0 1 1-2-2A2 2 0 0 1 64 81.5ZM92.5 81a2 2 0 1 1-2-2A2 2 0 0 1 92.5 81Zm-6-30a2 2 0 1 1-2 2A2 2 0 0 1 86.5 51Zm8-8a2 2 0 1 1-2 2A2 2 0 0 1 94.5 43ZM35 18.5a2 2 0 1 1 2 2A2 2 0 0 1 35 18.5Zm-21.5 47a2 2 0 1 1 2-2A2 2 0 0 1 13.5 65.5Zm61.9-8.9a8.9 8.9 0 0 1-8.8 8.8H36.1a11.5 11.5 0 1 1 0-23.1h0.1a1 1 0 0 0 1.1-0.6 14.7 14.7 0 0 1 28.3 5 1 1 0 0 0 1 1A8.9 8.9 0 0 1 75.4 56.6Z" fill="black"></path></g></svg></g></svg></g></svg></g><defs><mask></mask></defs></svg><rect width="395.52" height="60.01372318583259" fill="black" stroke="none" visibility="hidden"></rect></g></mask><linearGradient x1="0.054" x2="0.941" y1="0.5" y2="0.5" id="2ffb9970-e4ce-4912-961d-4a19c29c859f"><stop stop-color="#9c7945" offset="0"></stop><stop stop-color="#faf3aa" offset="0.498"></stop><stop stop-color="#9c7945" offset="1"></stop></linearGradient><rect width="395.52" height="60.01372318583259" fill="url(#2ffb9970-e4ce-4912-961d-4a19c29c859f)" mask="url(#2328cb86-f2bb-4ac8-8584-c9b0b8c8b58b)" data-fill-palette-color="primary"></rect><mask id="7faa293f-344d-46dc-890e-006a6d8f6a41"><g id="SvgjsG1023"><svg viewBox="0 0 395.52 60.01372318583259" height="60.01372318583259" width="395.52"><g><svg viewBox="0 0 487.0507495487293 73.90202483027336" height="60.01372318583259" width="395.52"><g transform="matrix(1,0,0,1,91.53074954872933,17.616472603748356)"><svg viewBox="0 0 395.52 38.66907962277665" height="38.66907962277665" width="395.52"><g id="SvgjsG1022"><svg viewBox="0 0 395.52 38.66907962277665" height="38.66907962277665" width="395.52" id="SvgjsSvg1021"><g><svg viewBox="0 0 395.52 38.66907962277665" height="38.66907962277665" width="395.52"><g transform="matrix(1,0,0,1,0,0)"><svg width="395.52" viewBox="4.3 -38.99 408.99 39.99" height="38.66907962277665" data-palette-color="url(#2ffb9970-e4ce-4912-961d-4a19c29c859f)"></svg></g></svg></g></svg></g></svg></g><g><svg viewBox="0 0 82.40190790770271 73.90202483027336" height="73.90202483027336" width="82.40190790770271"><g><svg xmlns="http://www.w3.org/2000/svg" data-name="Layer 1" viewBox="1.5270166537925824 6.527016653792581 96.94610610181371 86.94596669241483" x="0" y="0" height="73.90202483027336" width="82.40190790770271" class="icon-icon-0" data-fill-palette-color="accent" id="SvgjsSvg1020"><g data-name="Group" fill="white"><path data-name="Compound Path" d="M94.5 49a4 4 0 1 0-3.9-5H67.2a16.5 16.5 0 0 0-2.4-6H82.6a4 4 0 1 0 0-2H63.3l-0.3-0.4V15.5H77.1a4 4 0 1 0 0-1.9H62a1 1 0 0 0-1 1V33.9a16.6 16.6 0 0 0-7.1-3.1 1 1 0 0 0 0.1-0.3V22.4a4 4 0 1 0-2 0v8.1H50.9a16.8 16.8 0 0 0-4.9 0.7V14.4a4 4 0 1 0-2 0V31.5a1 1 0 0 0 0.1 0.5A16.5 16.5 0 0 0 38 36.7V22.4a4 4 0 1 0-2 0V37.5H12.5v-14h0a4 4 0 1 0-1.9 0h0v15a1 1 0 0 0 1 1H36.1l-0.4 0.9a13.5 13.5 0 0 0-10.9 6.2H17.4a4 4 0 1 0 0 2h6.4a13.4 13.4 0 0 0-1.1 5.4c0 0.2 0 0.4 0 0.6H9.4a4 4 0 1 0 0 2H22.8a13.5 13.5 0 0 0 2.8 6H17.4a4 4 0 1 0 0 2H27.7a13.5 13.5 0 0 0 8.4 3h0v15H21.9a4 4 0 1 0 0 1.9H37a1 1 0 0 0 1-1v-16h7V77.6a4 4 0 1 0 2 0V67.5h6V85.6a4 4 0 1 0 2 0V67.5h6V77.6a4 4 0 1 0 2 0V67.5h3.6A10.8 10.8 0 0 0 75.3 63H89.5V77h0a4 4 0 1 0 1.9 0h0V62a1 1 0 0 0-1-1h-14a10.7 10.7 0 0 0 0.6-7h5.6a4 4 0 1 0 0-2H76.4a10.9 10.9 0 0 0-7.6-6H90.6A4 4 0 0 0 94.5 49Zm-8-14a2 2 0 1 1-2 2A2 2 0 0 1 86.5 35ZM81 12.5a2 2 0 1 1-2 2A2 2 0 0 1 81 12.5Zm-30 6a2 2 0 1 1 2 2A2 2 0 0 1 51 18.5Zm-8-8a2 2 0 1 1 2 2A2 2 0 0 1 43 10.5Zm-33.5 9a2 2 0 1 1 2 2A2 2 0 0 1 9.5 19.5Zm4 30a2 2 0 1 1 2-2A2 2 0 0 1 13.5 49.5Zm-8 8a2 2 0 1 1 2-2A2 2 0 0 1 5.5 57.5ZM18 85.5a2 2 0 1 1 2-2A2 2 0 0 1 18 85.5Zm30-4a2 2 0 1 1-2-2A2 2 0 0 1 48 81.5Zm8 8a2 2 0 1 1-2-2A2 2 0 0 1 56 89.5Zm8-8a2 2 0 1 1-2-2A2 2 0 0 1 64 81.5ZM92.5 81a2 2 0 1 1-2-2A2 2 0 0 1 92.5 81Zm-6-30a2 2 0 1 1-2 2A2 2 0 0 1 86.5 51Zm8-8a2 2 0 1 1-2 2A2 2 0 0 1 94.5 43ZM35 18.5a2 2 0 1 1 2 2A2 2 0 0 1 35 18.5Zm-21.5 47a2 2 0 1 1 2-2A2 2 0 0 1 13.5 65.5Zm61.9-8.9a8.9 8.9 0 0 1-8.8 8.8H36.1a11.5 11.5 0 1 1 0-23.1h0.1a1 1 0 0 0 1.1-0.6 14.7 14.7 0 0 1 28.3 5 1 1 0 0 0 1 1A8.9 8.9 0 0 1 75.4 56.6Z" fill="white"></path></g></svg></g></svg></g></svg></g><defs><mask></mask></defs><mask><g id="SvgjsG1019"><svg viewBox="0 0 395.52 60.01372318583259" height="60.01372318583259" width="395.52"><g><svg viewBox="0 0 487.0507495487293 73.90202483027336" height="60.01372318583259" width="395.52"><g transform="matrix(1,0,0,1,91.53074954872933,17.616472603748356)"><svg viewBox="0 0 395.52 38.66907962277665" height="38.66907962277665" width="395.52"><g id="SvgjsG1018"><svg viewBox="0 0 395.52 38.66907962277665" height="38.66907962277665" width="395.52" id="SvgjsSvg1017"><g><svg viewBox="0 0 395.52 38.66907962277665" height="38.66907962277665" width="395.52"><g transform="matrix(1,0,0,1,0,0)"><svg width="395.52" viewBox="4.3 -38.99 408.99 39.99" height="38.66907962277665" data-palette-color="url(#2ffb9970-e4ce-4912-961d-4a19c29c859f)"><path d="M7.3-1.86L7.3-1.86Q9.99-0.49 12.6-0.49L12.6-0.49Q14.18-0.49 15.54-0.96 16.89-1.44 17.88-2.39 18.87-3.34 19.43-4.75 20-6.15 20-8.01L20-8.01Q20-9.4 19.7-10.44 19.41-11.47 18.58-12.46 17.75-13.45 16.26-14.58 14.77-15.7 12.35-17.26L12.35-17.26Q8.5-19.78 6.73-22.09 4.96-24.41 4.96-26.81L4.96-26.81Q4.96-29.15 5.93-30.92 6.91-32.69 8.51-33.87 10.11-35.06 12.12-35.66 14.14-36.25 16.21-36.25L16.21-36.25Q19.95-36.25 22.9-34.55L22.9-34.55Q22.22-30.76 20.51-27.2L20.51-27.2 19.85-27.54Q20-28.47 20.08-29.31 20.17-30.15 20.17-30.9 20.17-31.64 20.09-32.26 20.02-32.89 19.9-33.45L19.9-33.45Q17.94-34.59 15.7-34.59L15.7-34.59Q14.28-34.59 13-34.17 11.72-33.74 10.74-32.91 9.77-32.08 9.18-30.87 8.59-29.66 8.59-28.1L8.59-28.1Q8.59-27 8.98-26.05 9.38-25.1 10.19-24.15 11.01-23.19 12.24-22.17 13.48-21.14 15.16-19.9L15.16-19.9Q16.16-19.17 17.04-18.57 17.92-17.97 18.68-17.43 19.43-16.89 20.08-16.38 20.73-15.87 21.29-15.28L21.29-15.28Q24-12.43 24-8.64L24-8.64Q24-6.1 23.11-4.27 22.22-2.44 20.68-1.27 19.14-0.1 17.09 0.45 15.04 1 12.74 1L12.74 1Q8.62 1 4.3-0.66L4.3-0.66Q5.05-4.59 6.69-8.01L6.69-8.01 7.35-7.64Q7.06-6.27 7.06-4.3 7.06-2.32 7.3-1.86ZM51.19-2.44L51.19-17.04Q51.19-19.09 50.8-20.4 50.41-21.7 49.74-22.45 49.07-23.19 48.18-23.49 47.29-23.78 46.29-23.78L46.29-23.78Q45.07-23.78 44-23.56 42.94-23.34 41.88-22.89 40.82-22.44 39.72-21.77 38.62-21.09 37.35-20.19L37.35-20.19 37.35-3.34Q37.35-2.56 37.47-2.09 37.6-1.61 37.99-1.29 38.38-0.98 39.08-0.73 39.79-0.49 40.94-0.2L40.94-0.2 40.74 0.39Q39.33 0.2 38.34 0.1 37.35 0 36.35 0 35.35 0 33.49 0.39L33.49 0.39 33.35 0.15Q33.84-0.56 33.84-2.44L33.84-2.44 33.84-31.69Q33.84-33.33 33.68-34.42 33.52-35.52 33.12-36.18 32.71-36.84 32-37.11 31.3-37.38 30.5-37.38 29.71-37.38 29.54-37.35L29.54-37.35 29.44-37.79Q33.42-38.99 36.84-38.99L36.84-38.99Q37.35-37.7 37.35-36.21L37.35-36.21 37.35-21.9Q39.04-23.05 40.41-23.79 41.79-24.54 43-24.98 44.21-25.42 45.3-25.59 46.38-25.76 47.51-25.76L47.51-25.76Q49.05-25.76 50.33-25.35 51.61-24.95 52.54-24.04 53.46-23.12 54.03-21.63 54.59-20.14 54.69-17.94L54.69-17.94 54.69-2.76Q54.69-2.17 54.97-1.78 55.25-1.39 55.7-1.12 56.15-0.85 56.74-0.67 57.32-0.49 57.96-0.29L57.96-0.29 57.74 0.29Q56.37 0 54.54 0 52.71 0 50.85 0.39L50.85 0.39 50.71 0.15Q51.19-0.56 51.19-2.44L51.19-2.44ZM65.84-2.44L65.84-18.09Q65.84-21.56 65.02-22.74 64.2-23.93 61.54-23.75L61.54-23.75 61.45-24.19Q65.47-25.39 68.84-25.39L68.84-25.39Q69.36-24.12 69.36-22.61L69.36-22.61 69.36-4.39Q69.36-2.47 70.26-1.54 71.16-0.61 73.46-0.2L73.46-0.2 73.26 0.39Q70.45 0 68.93 0 67.4 0 65.5 0.39L65.5 0.39 65.35 0.15Q65.84-0.56 65.84-2.44L65.84-2.44ZM63.35-34.45L63.35-34.45Q65.67-35.79 68.6-36.69L68.6-36.69Q68.6-34.67 69.26-32.69L69.26-32.69 68.94-32.25Q66.62-32.1 64.11-30.96L64.11-30.96Q63.5-32.64 63.35-34.45ZM97.7-2.44L97.7-17.04Q97.7-19.09 97.31-20.4 96.92-21.7 96.24-22.45 95.57-23.19 94.68-23.49 93.79-23.78 92.79-23.78L92.79-23.78Q91.57-23.78 90.51-23.56 89.45-23.34 88.38-22.89 87.32-22.44 86.22-21.77 85.12-21.09 83.85-20.19L83.85-20.19 83.85-3.34Q83.85-2.56 83.98-2.09 84.1-1.61 84.49-1.29 84.88-0.98 85.59-0.73 86.3-0.49 87.44-0.2L87.44-0.2 87.25 0.39Q85.83 0.2 84.84 0.1 83.85 0 82.85 0 81.85 0 80 0.39L80 0.39 79.85 0.15Q80.34-0.56 80.34-2.44L80.34-2.44 80.34-31.69Q80.34-33.33 80.18-34.42 80.02-35.52 79.62-36.18 79.22-36.84 78.51-37.11 77.8-37.38 77.01-37.38 76.21-37.38 76.04-37.35L76.04-37.35 75.94-37.79Q79.92-38.99 83.34-38.99L83.34-38.99Q83.85-37.7 83.85-36.21L83.85-36.21 83.85-21.9Q85.54-23.05 86.92-23.79 88.3-24.54 89.51-24.98 90.72-25.42 91.8-25.59 92.89-25.76 94.01-25.76L94.01-25.76Q95.55-25.76 96.83-25.35 98.11-24.95 99.04-24.04 99.97-23.12 100.53-21.63 101.09-20.14 101.19-17.94L101.19-17.94 101.19-2.76Q101.19-2.17 101.47-1.78 101.75-1.39 102.2-1.12 102.65-0.85 103.24-0.67 103.83-0.49 104.46-0.29L104.46-0.29 104.24 0.29Q102.87 0 101.04 0 99.21 0 97.36 0.39L97.36 0.39 97.21 0.15Q97.7-0.56 97.7-2.44L97.7-2.44ZM127.7-17.65L127.7-2.76Q127.7-2.34 127.88-1.99 128.07-1.64 128.32-1.4 128.58-1.17 129.07-0.95 129.56-0.73 129.92-0.61 130.29-0.49 130.95-0.29L130.95-0.29 130.75 0.29Q129.19 0 127.65 0L127.65 0Q125.72 0 123.84 0.39L123.84 0.39 123.7 0.15Q124.21-0.56 124.21-2.44L124.21-2.44 124.21-4.05Q122.99-1.78 120.41-0.39 117.84 1 115.2 1L115.2 1Q112.39 1 110.67-0.45 108.95-1.9 108.95-4.76L108.95-4.76Q108.95-6.62 109.72-8.07 110.49-9.52 111.77-10.53 113.05-11.55 115.07-12.33 117.08-13.11 119.22-13.6 121.35-14.09 124.21-14.5L124.21-14.5 124.21-16.75Q124.21-23.46 118.91-23.46L118.91-23.46Q117.2-23.46 114.72-22.62 112.25-21.78 110.56-20.41L110.56-20.41 109.56-21.56Q111.68-23.24 114.6-24.34 117.52-25.44 120.06-25.44L120.06-25.44Q121.18-25.44 122.19-25.23 123.21-25.02 124.25-24.48 125.28-23.93 126.03-23.08 126.77-22.24 127.24-20.84 127.7-19.43 127.7-17.65L127.7-17.65ZM116.35-0.85L116.35-0.85Q118.47-0.85 120.79-2.26 123.11-3.66 124.21-5.76L124.21-5.76 124.21-13.21Q117.96-12.3 115.29-10.44 112.61-8.57 112.61-5L112.61-5Q112.61-2.83 113.54-1.84 114.47-0.85 116.35-0.85ZM138.83-2.44L138.83-18.09Q138.83-19.73 138.67-20.83 138.51-21.92 138.11-22.58 137.71-23.24 137-23.51 136.29-23.78 135.5-23.78 134.7-23.78 134.53-23.75L134.53-23.75 134.44-24.19Q138.42-25.39 141.83-25.39L141.83-25.39Q142.35-24.1 142.35-22.61L142.35-22.61 142.35-21.9Q143.76-22.85 144.96-23.56 146.15-24.27 147.31-24.76 148.47-25.24 149.69-25.49 150.92-25.73 152.38-25.73L152.38-25.73Q153.7-25.73 155-25.39 156.31-25.05 157.35-24.17 158.39-23.29 159.03-21.78 159.68-20.26 159.68-17.94L159.68-17.94 159.68-2.76Q159.68-2.17 159.96-1.78 160.24-1.39 160.69-1.12 161.14-0.85 161.73-0.67 162.32-0.49 162.95-0.29L162.95-0.29 162.73 0.29Q161.36 0 159.09 0L159.09 0Q157.7 0 155.85 0.39L155.85 0.39 155.7 0.15Q156.19-0.56 156.19-2.44L156.19-2.44 156.19-17.04Q156.19-19.09 155.8-20.4 155.41-21.7 154.74-22.45 154.06-23.19 153.17-23.49 152.28-23.78 151.28-23.78L151.28-23.78Q150.06-23.78 149-23.56 147.94-23.34 146.87-22.89 145.81-22.44 144.71-21.77 143.62-21.09 142.35-20.19L142.35-20.19 142.35-3.34Q142.35-2.56 142.47-2.09 142.59-1.61 142.98-1.29 143.37-0.98 144.08-0.73 144.79-0.49 145.93-0.2L145.93-0.2 145.74 0.39Q144.32 0.2 143.33 0.1 142.35 0 141.74 0L141.74 0Q140.34 0 138.49 0.39L138.49 0.39 138.34 0.15Q138.83-0.56 138.83-2.44L138.83-2.44ZM197.13 0.49L197.13 0.49 195.17 0Q192.78-7.67 189.98-14.54 187.19-21.41 183.23-30L183.23-30Q182.48-31.69 181.67-32.42 180.87-33.15 180-33.15 179.13-33.15 177.94-33.06L177.94-33.06 177.69-33.54Q181.79-35.6 184.77-35.6L184.77-35.6Q186.09-33.01 187.29-30.41 188.48-27.81 189.81-24.58 191.14-21.36 191.83-19.67 192.51-17.97 194.11-13.87 195.71-9.77 196.13-8.69L196.13-8.69Q196.88-6.91 197.08-4.76L197.08-4.76 197.49-4.76Q197.57-4.93 198.03-6.47 198.49-8.01 199.13-9.55L199.13-9.55 208.23-32.59Q208.38-33.52 207.42-33.89 206.45-34.25 204.33-34.06L204.33-34.06 204.18-34.5Q207.33-35.4 210.92-35.4L210.92-35.4Q211.12-35.4 211.2-35.24 211.29-35.08 211.24-34.91L211.24-34.91Q210.97-34.01 210.66-33.06 210.36-32.1 197.13 0.49ZM217.51-2.44L217.51-18.09Q217.51-21.56 216.69-22.74 215.87-23.93 213.21-23.75L213.21-23.75 213.11-24.19Q217.14-25.39 220.51-25.39L220.51-25.39Q221.02-24.12 221.02-22.61L221.02-22.61 221.02-4.39Q221.02-2.47 221.93-1.54 222.83-0.61 225.13-0.2L225.13-0.2 224.93 0.39Q222.12 0 220.6 0 219.07 0 217.17 0.39L217.17 0.39 217.02 0.15Q217.51-0.56 217.51-2.44L217.51-2.44ZM215.02-34.45L215.02-34.45Q217.34-35.79 220.27-36.69L220.27-36.69Q220.27-34.67 220.93-32.69L220.93-32.69 220.61-32.25Q218.29-32.1 215.78-30.96L215.78-30.96Q215.17-32.64 215.02-34.45ZM247.02-25L247.02-31.69Q247.02-33.35 246.88-34.33 246.73-35.3 246.28-36.04 245.83-36.77 244.97-37.06 244.12-37.35 242.73-37.35L242.73-37.35 242.63-37.79Q246.66-38.99 250.03-38.99L250.03-38.99Q250.51-37.7 250.51-36.21L250.51-36.21 250.51-4.39Q250.51-2.47 251.42-1.54 252.32-0.61 254.62-0.2L254.62-0.2 254.42 0.39Q251.61 0 249.93 0L249.93 0Q248.61 0 246.66 0.39L246.66 0.39 246.51 0.15Q247.02-0.56 247.02-2.44L247.02-2.44 247.02-2.66Q243.43 1 239.53 1L239.53 1Q237.45 1 235.54 0.12 233.62-0.76 232.13-2.31 230.64-3.86 229.75-6.19 228.86-8.52 228.86-11.25L228.86-11.25Q228.86-17.8 232.31-21.59 235.77-25.39 242.31-25.39L242.31-25.39Q244.36-25.39 247.02-25L247.02-25ZM247.02-4.44L247.02-22.29Q244.24-23.56 240.53-23.56L240.53-23.56Q238.62-23.56 237.23-23.03 235.84-22.51 234.98-21.61 234.11-20.7 233.6-19.27 233.08-17.85 232.9-16.26 232.72-14.67 232.72-12.55L232.72-12.55Q232.72-6.96 234.79-4.03 236.87-1.1 240.16-1.1L240.16-1.1Q243.75-1.1 247.02-4.44L247.02-4.44ZM281.2-22.19L281.2-6.81Q281.2-5.18 281.36-4.09 281.52-3 281.92-2.34 282.32-1.68 283.03-1.4 283.74-1.12 284.52-1.12 285.3-1.12 285.5-1.15L285.5-1.15 285.62-0.71Q281.59 0.49 278.2 0.49L278.2 0.49Q277.71-0.83 277.71-2.29L277.71-2.29 277.71-3.44Q276.42-2.29 275.3-1.46 274.19-0.63 273.12-0.09 272.05 0.46 270.92 0.73 269.8 1 268.51 1L268.51 1Q267.04 1 265.59 0.66 264.14 0.32 262.96-0.56 261.79-1.44 261.07-2.95 260.35-4.47 260.35-6.81L260.35-6.81 260.35-21.9Q260.35-22.88 259.53-23.39 258.72-23.9 257.1-24.34L257.1-24.34 257.3-24.95Q258.72-24.66 260.96-24.66L260.96-24.66Q262.35-24.66 264.21-25.05L264.21-25.05 264.35-24.8Q263.87-24.05 263.87-22.19L263.87-22.19 263.87-7.69Q263.87-5.66 264.33-4.36 264.79-3.05 265.58-2.29 266.36-1.54 267.41-1.26 268.46-0.98 269.63-0.98L269.63-0.98Q270.73-0.98 271.67-1.21 272.61-1.44 273.56-1.94 274.51-2.44 275.51-3.23 276.51-4.03 277.71-5.15L277.71-5.15 277.71-21.29Q277.71-22.05 277.58-22.52 277.44-23 277.06-23.33 276.68-23.66 275.98-23.9 275.27-24.15 274.12-24.44L274.12-24.44 274.32-25.05Q275.71-24.85 276.71-24.76 277.71-24.66 278.32-24.66L278.32-24.66Q279.71-24.66 281.57-25.05L281.57-25.05 281.71-24.8Q281.2-24.07 281.2-22.19L281.2-22.19ZM297.02-36.21L297.02-4.39Q297.02-2.47 297.92-1.54 298.83-0.61 301.12-0.2L301.12-0.2 300.92 0.39Q298.12 0 296.59 0 295.07 0 293.16 0.39L293.16 0.39 293.01 0.15Q293.5-0.56 293.5-2.44L293.5-2.44 293.5-31.69Q293.5-35.16 292.68-36.34 291.87-37.52 289.21-37.35L289.21-37.35 289.11-37.79Q293.14-38.99 296.51-38.99L296.51-38.99Q297.02-37.72 297.02-36.21L297.02-36.21ZM323.85-17.65L323.85-2.76Q323.85-2.34 324.03-1.99 324.21-1.64 324.47-1.4 324.73-1.17 325.21-0.95 325.7-0.73 326.07-0.61 326.43-0.49 327.09-0.29L327.09-0.29 326.9 0.29Q325.34 0 323.8 0L323.8 0Q321.87 0 319.99 0.39L319.99 0.39 319.84 0.15Q320.36-0.56 320.36-2.44L320.36-2.44 320.36-4.05Q319.14-1.78 316.56-0.39 313.98 1 311.35 1L311.35 1Q308.54 1 306.82-0.45 305.1-1.9 305.1-4.76L305.1-4.76Q305.1-6.62 305.87-8.07 306.64-9.52 307.92-10.53 309.2-11.55 311.21-12.33 313.23-13.11 315.36-13.6 317.5-14.09 320.36-14.5L320.36-14.5 320.36-16.75Q320.36-23.46 315.06-23.46L315.06-23.46Q313.35-23.46 310.87-22.62 308.39-21.78 306.71-20.41L306.71-20.41 305.71-21.56Q307.83-23.24 310.75-24.34 313.67-25.44 316.21-25.44L316.21-25.44Q317.33-25.44 318.34-25.23 319.35-25.02 320.39-24.48 321.43-23.93 322.17-23.08 322.92-22.24 323.38-20.84 323.85-19.43 323.85-17.65L323.85-17.65ZM312.49-0.85L312.49-0.85Q314.62-0.85 316.94-2.26 319.26-3.66 320.36-5.76L320.36-5.76 320.36-13.21Q314.11-12.3 311.43-10.44 308.76-8.57 308.76-5L308.76-5Q308.76-2.83 309.69-1.84 310.61-0.85 312.49-0.85ZM334.98-2.44L334.98-18.09Q334.98-19.73 334.82-20.83 334.66-21.92 334.26-22.58 333.85-23.24 333.15-23.51 332.44-23.78 331.64-23.78 330.85-23.78 330.68-23.75L330.68-23.75 330.58-24.19Q334.56-25.39 337.98-25.39L337.98-25.39Q338.49-24.1 338.49-22.61L338.49-22.61 338.49-21.9Q339.91-22.85 341.11-23.56 342.3-24.27 343.46-24.76 344.62-25.24 345.84-25.49 347.06-25.73 348.53-25.73L348.53-25.73Q349.85-25.73 351.15-25.39 352.46-25.05 353.5-24.17 354.53-23.29 355.18-21.78 355.83-20.26 355.83-17.94L355.83-17.94 355.83-2.76Q355.83-2.17 356.11-1.78 356.39-1.39 356.84-1.12 357.29-0.85 357.88-0.67 358.46-0.49 359.1-0.29L359.1-0.29 358.88 0.29Q357.51 0 355.24 0L355.24 0Q353.85 0 351.99 0.39L351.99 0.39 351.85 0.15Q352.34-0.56 352.34-2.44L352.34-2.44 352.34-17.04Q352.34-19.09 351.95-20.4 351.55-21.7 350.88-22.45 350.21-23.19 349.32-23.49 348.43-23.78 347.43-23.78L347.43-23.78Q346.21-23.78 345.15-23.56 344.08-23.34 343.02-22.89 341.96-22.44 340.86-21.77 339.76-21.09 338.49-20.19L338.49-20.19 338.49-3.34Q338.49-2.56 338.61-2.09 338.74-1.61 339.13-1.29 339.52-0.98 340.23-0.73 340.93-0.49 342.08-0.2L342.08-0.2 341.89 0.39Q340.47 0.2 339.48 0.1 338.49 0 337.88 0L337.88 0Q336.49 0 334.64 0.39L334.64 0.39 334.49 0.15Q334.98-0.56 334.98-2.44L334.98-2.44ZM366.98-2.44L366.98-31.69Q366.98-35.16 366.16-36.34 365.35-37.52 362.68-37.35L362.68-37.35 362.59-37.79Q366.62-38.99 369.98-38.99L369.98-38.99Q370.5-37.72 370.5-36.21L370.5-36.21 370.5-4.39Q370.5-2.47 371.4-1.54 372.3-0.61 374.6-0.2L374.6-0.2 374.4 0.39Q371.6 0 369.89 0L369.89 0Q368.54 0 366.64 0.39L366.64 0.39 366.49 0.15Q366.98-0.56 366.98-2.44L366.98-2.44ZM381.48-1.15L381.48-1.15 372.45-13.04 372.45-13.6 381.48-22.71Q382.17-23.46 380.97-23.85L380.97-23.85Q379.9-24.22 377.89-24.05L377.89-24.05 377.75-24.66Q380.87-25.29 385-25.39L385-25.39 385.39-24.66 375.23-14.5Q384.71-2.61 385.8-1.82 386.9-1.03 388.54-0.66L388.54-0.66 388.49 0.1Q384.49-0.2 382.44 0.39L382.44 0.39 382.09 0.2Q382.14-0.34 381.48-1.15ZM410.05-17.65L410.05-2.76Q410.05-2.34 410.23-1.99 410.41-1.64 410.67-1.4 410.92-1.17 411.41-0.95 411.9-0.73 412.27-0.61 412.63-0.49 413.29-0.29L413.29-0.29 413.1 0.29Q411.53 0 410 0L410 0Q408.07 0 406.19 0.39L406.19 0.39 406.04 0.15Q406.55-0.56 406.55-2.44L406.55-2.44 406.55-4.05Q405.33-1.78 402.76-0.39 400.18 1 397.55 1L397.55 1Q394.74 1 393.02-0.45 391.3-1.9 391.3-4.76L391.3-4.76Q391.3-6.62 392.06-8.07 392.83-9.52 394.12-10.53 395.4-11.55 397.41-12.33 399.43-13.11 401.56-13.6 403.7-14.09 406.55-14.5L406.55-14.5 406.55-16.75Q406.55-23.46 401.26-23.46L401.26-23.46Q399.55-23.46 397.07-22.62 394.59-21.78 392.91-20.41L392.91-20.41 391.91-21.56Q394.03-23.24 396.95-24.34 399.86-25.44 402.4-25.44L402.4-25.44Q403.53-25.44 404.54-25.23 405.55-25.02 406.59-24.48 407.63-23.93 408.37-23.08 409.12-22.24 409.58-20.84 410.05-19.43 410.05-17.65L410.05-17.65ZM398.69-0.85L398.69-0.85Q400.82-0.85 403.14-2.26 405.46-3.66 406.55-5.76L406.55-5.76 406.55-13.21Q400.3-12.3 397.63-10.44 394.96-8.57 394.96-5L394.96-5Q394.96-2.83 395.89-1.84 396.81-0.85 398.69-0.85Z" opacity="1" transform="matrix(1,0,0,1,0,0)" fill="black" class="wordmark-text-0" id="SvgjsPath1016"></path></svg></g></svg></g></svg></g></svg></g><g><svg viewBox="0 0 82.40190790770271 73.90202483027336" height="73.90202483027336" width="82.40190790770271"><g><svg xmlns="http://www.w3.org/2000/svg" data-name="Layer 1" viewBox="1.5270166537925824 6.527016653792581 96.94610610181371 86.94596669241483" x="0" y="0" height="73.90202483027336" width="82.40190790770271" class="icon-icon-0" data-fill-palette-color="accent" id="SvgjsSvg1015"><g data-name="Group" fill="black"><path data-name="Compound Path" d="M94.5 49a4 4 0 1 0-3.9-5H67.2a16.5 16.5 0 0 0-2.4-6H82.6a4 4 0 1 0 0-2H63.3l-0.3-0.4V15.5H77.1a4 4 0 1 0 0-1.9H62a1 1 0 0 0-1 1V33.9a16.6 16.6 0 0 0-7.1-3.1 1 1 0 0 0 0.1-0.3V22.4a4 4 0 1 0-2 0v8.1H50.9a16.8 16.8 0 0 0-4.9 0.7V14.4a4 4 0 1 0-2 0V31.5a1 1 0 0 0 0.1 0.5A16.5 16.5 0 0 0 38 36.7V22.4a4 4 0 1 0-2 0V37.5H12.5v-14h0a4 4 0 1 0-1.9 0h0v15a1 1 0 0 0 1 1H36.1l-0.4 0.9a13.5 13.5 0 0 0-10.9 6.2H17.4a4 4 0 1 0 0 2h6.4a13.4 13.4 0 0 0-1.1 5.4c0 0.2 0 0.4 0 0.6H9.4a4 4 0 1 0 0 2H22.8a13.5 13.5 0 0 0 2.8 6H17.4a4 4 0 1 0 0 2H27.7a13.5 13.5 0 0 0 8.4 3h0v15H21.9a4 4 0 1 0 0 1.9H37a1 1 0 0 0 1-1v-16h7V77.6a4 4 0 1 0 2 0V67.5h6V85.6a4 4 0 1 0 2 0V67.5h6V77.6a4 4 0 1 0 2 0V67.5h3.6A10.8 10.8 0 0 0 75.3 63H89.5V77h0a4 4 0 1 0 1.9 0h0V62a1 1 0 0 0-1-1h-14a10.7 10.7 0 0 0 0.6-7h5.6a4 4 0 1 0 0-2H76.4a10.9 10.9 0 0 0-7.6-6H90.6A4 4 0 0 0 94.5 49Zm-8-14a2 2 0 1 1-2 2A2 2 0 0 1 86.5 35ZM81 12.5a2 2 0 1 1-2 2A2 2 0 0 1 81 12.5Zm-30 6a2 2 0 1 1 2 2A2 2 0 0 1 51 18.5Zm-8-8a2 2 0 1 1 2 2A2 2 0 0 1 43 10.5Zm-33.5 9a2 2 0 1 1 2 2A2 2 0 0 1 9.5 19.5Zm4 30a2 2 0 1 1 2-2A2 2 0 0 1 13.5 49.5Zm-8 8a2 2 0 1 1 2-2A2 2 0 0 1 5.5 57.5ZM18 85.5a2 2 0 1 1 2-2A2 2 0 0 1 18 85.5Zm30-4a2 2 0 1 1-2-2A2 2 0 0 1 48 81.5Zm8 8a2 2 0 1 1-2-2A2 2 0 0 1 56 89.5Zm8-8a2 2 0 1 1-2-2A2 2 0 0 1 64 81.5ZM92.5 81a2 2 0 1 1-2-2A2 2 0 0 1 92.5 81Zm-6-30a2 2 0 1 1-2 2A2 2 0 0 1 86.5 51Zm8-8a2 2 0 1 1-2 2A2 2 0 0 1 94.5 43ZM35 18.5a2 2 0 1 1 2 2A2 2 0 0 1 35 18.5Zm-21.5 47a2 2 0 1 1 2-2A2 2 0 0 1 13.5 65.5Zm61.9-8.9a8.9 8.9 0 0 1-8.8 8.8H36.1a11.5 11.5 0 1 1 0-23.1h0.1a1 1 0 0 0 1.1-0.6 14.7 14.7 0 0 1 28.3 5 1 1 0 0 0 1 1A8.9 8.9 0 0 1 75.4 56.6Z" fill="black"></path></g></svg></g></svg></g></svg></g><defs><mask></mask></defs></svg><rect width="395.52" height="60.01372318583259" fill="black" stroke="none" visibility="hidden"></rect></g></mask></svg><rect width="395.52" height="60.01372318583259" fill="black" stroke="none" visibility="hidden"></rect></g></mask><linearGradient x1="0.054" x2="0.941" y1="0.5" y2="0.5" id="b693b769-e355-4cab-b219-febd7c415618"><stop stop-color="#9c7945" offset="0"></stop><stop stop-color="#faf3aa" offset="0.498"></stop><stop stop-color="#9c7945" offset="1"></stop></linearGradient><rect width="395.52" height="60.01372318583259" fill="url(#b693b769-e355-4cab-b219-febd7c415618)" mask="url(#7faa293f-344d-46dc-890e-006a6d8f6a41)" data-fill-palette-color="accent"></rect></svg><rect width="395.52" height="60.01372318583259" fill="none" stroke="none" visibility="hidden"></rect></g></svg></g></svg>