<svg xmlns="http://www.w3.org/2000/svg" version="1.1" xmlns:xlink="http://www.w3.org/1999/xlink" xmlns:svgjs="http://svgjs.dev/svgjs" width="128" height="128" viewBox="0 0 128 128"><g transform="matrix(0.8046875,0,0,0.8046875,12.251113714917729,16.852494843545728)"><svg viewBox="0 0 96 87" data-background-color="#162836" preserveAspectRatio="xMidYMid meet" height="116" width="128" xmlns="http://www.w3.org/2000/svg" xmlns:xlink="http://www.w3.org/1999/xlink"><g id="tight-bounds" transform="matrix(1,0,0,1,0.2704882137146001,0.4433057768894173)"><svg viewBox="0 0 95.481 86.42705966936761" height="86.42705966936761" width="95.481"><g><svg viewBox="0 0 95.481 86.42705966936761" height="86.42705966936761" width="95.481"><g><svg viewBox="0 0 95.481 86.42705966936761" height="86.42705966936761" width="95.481"><g id="textblocktransform"><svg viewBox="0 0 95.481 86.42705966936761" height="86.42705966936761" width="95.481" id="textblock"><g><svg viewBox="0 0 95.481 86.42705966936761" height="86.42705966936761" width="95.481"><g><svg viewBox="0 0 95.481 86.42705966936761" height="86.42705966936761" width="95.481"><g><svg xmlns="http://www.w3.org/2000/svg" data-name="Layer 1" viewBox="7.8 11.815360616818406 84.42153729859733 76.41630524906122" x="0" y="0" height="86.42705966936761" width="95.481" class="icon-icon-0" data-fill-palette-color="accent" id="icon-0"><path d="M67.61 70.91H84A1.1 1.1 0 0 0 84.73 69l-5.48-5.48a1.1 1.1 0 1 0-1.56 1.56l3.6 3.6H67.61A1.1 1.1 0 0 0 67.61 70.91Z" fill="#000000" data-fill-palette-color="accent"></path><path d="M84 73.66H67.61a1.1 1.1 0 0 0-0.78 1.88L72.32 81a1.1 1.1 0 1 0 1.56-1.56l-3.6-3.6H84A1.1 1.1 0 0 0 84 73.66Z" fill="#000000" data-fill-palette-color="accent"></path><path d="M15.76 21.89a2.35 2.35 0 1 0 2.35 2.35A2.35 2.35 0 0 0 15.76 21.89Zm0 3.5a1.15 1.15 0 1 1 1.15-1.15A1.15 1.15 0 0 1 15.76 25.39Z" fill="#000000" data-fill-palette-color="accent"></path><path d="M68.4 21.89a2.35 2.35 0 1 0 2.35 2.35A2.35 2.35 0 0 0 68.4 21.89Zm0 3.5a1.15 1.15 0 1 1 1.15-1.15A1.15 1.15 0 0 1 68.4 25.39Z" fill="#000000" data-fill-palette-color="accent"></path><path d="M71 55.1V35.17a0.6 0.6 0 0 0-0.6-0.6H30.76a0.6 0.6 0 0 0-0.6 0.6v6H14.89a0.6 0.6 0 0 0-0.6 0.6V61.74a0.6 0.6 0 0 0 0.6 0.6H54.57a0.6 0.6 0 0 0 0.6-0.6v-6H70.44A0.6 0.6 0 0 0 71 55.1Zm-48.81 6H15.49V55.7h6.74v5.44Zm0-6.64H15.49V49.06h6.74V54.5Zm0-6.64H15.49V42.41h6.74v5.44Zm7.94 13.29H23.42V55.7h6.74v5.44Zm0-6.64H23.42V49.06h6.74V54.5Zm7.94 6.64H31.36V55.7H38.1v5.44Zm0-6.64H31.36V49.06H38.1V54.5Zm0-13.29H31.36V35.77H38.1v5.44ZM46 61.14H39.3V55.7H46v5.44Zm0-6.64H39.3V49.06H46V54.5Zm0-13.29H39.3V35.77H46v5.44ZM54 61.14H47.23V55.7H54v5.44Zm0-6.64H47.23V49.06H54V54.5Zm0-13.29H47.23V35.77H54v5.44ZM61.9 54.5H55.17V49.06H61.9V54.5Zm0-13.29H55.17V35.77H61.9v5.44ZM69.84 54.5H63.1V49.06h6.74V54.5Zm0-6.64H63.1V42.41h6.74v5.44Zm0-6.64H63.1V35.77h6.74v5.44Z" fill="#000000" data-fill-palette-color="accent"></path><path d="M58.25 23.14H25.11a1.1 1.1 0 0 0 0 2.2H58.25A1.1 1.1 0 0 0 58.25 23.14Z" fill="#000000" data-fill-palette-color="accent"></path><path d="M77 55.86V19.67a2.2 2.2 0 0 0-2.2-2.2H71.53v-1.9A1.1 1.1 0 0 0 71 14.65L67 12a1.1 1.1 0 0 0-1.71 0.92v4.58H18.63v-1.9a1.1 1.1 0 0 0-0.49-0.92L14.07 12a1.1 1.1 0 0 0-1.71 0.92v4.58H10a2.2 2.2 0 0 0-2.2 2.2V67.15a2.19 2.19 0 0 0 2 2.18v2.09a1 1 0 0 0 1 1H11v2a1 1 0 0 0 1 1H60.18A16.2 16.2 0 1 0 77 55.86ZM67.47 14.93l1.86 1.23v1.31H67.47V14.93Zm-52.9 0l1.86 1.23v1.31H14.56V14.93ZM10 19.67h64.8v8.88H10V19.67Zm3 53.71v-1H59.84c0 0.32 0 0.65 0 1H13Zm46.91-3H11.73V69.35H60.06C60 69.7 59.94 70.05 59.9 70.41ZM10 67.15V29.75h64.8V55.88A16.23 16.23 0 0 0 60.57 67.15H10ZM76 86A14 14 0 0 1 62.45 75.38c-0.07-0.3-0.14-0.6-0.19-0.9s-0.06-0.37-0.09-0.56-0.06-0.36-0.08-0.54 0-0.64 0-1c0-0.13 0-0.26 0-0.4 0-0.39 0-0.78 0.06-1.16 0-0.15 0-0.29 0-0.44q0.06-0.54 0.16-1.06c0.06-0.33 0.15-0.66 0.24-1l0-0.17q0.15-0.53 0.35-1a14 14 0 0 1 11.8-9.07C75.14 58 75.58 58 76 58s0.61 0 0.92 0A14 14 0 0 1 76 86Z" fill="#000000" data-fill-palette-color="accent"></path></svg></g></svg></g></svg></g></svg></g></svg></g></svg></g><defs></defs></svg><rect width="95.481" height="86.42705966936761" fill="none" stroke="none" visibility="hidden"></rect></g></svg></g></svg>