<svg xmlns="http://www.w3.org/2000/svg" version="1.1" xmlns:xlink="http://www.w3.org/1999/xlink" xmlns:svgjs="http://svgjs.dev/svgjs" width="128" height="128" viewBox="0 0 128 128"><g transform="matrix(0.8046875,0,0,0.8046875,12.229433997651014,17.936537487357214)"><svg viewBox="0 0 96 86" data-background-color="#000000" preserveAspectRatio="xMidYMid meet" height="114" width="128" xmlns="http://www.w3.org/2000/svg" xmlns:xlink="http://www.w3.org/1999/xlink"><g id="tight-bounds" transform="matrix(1,0,0,1,0.2521780216068237,0.18400573489795136)"><svg viewBox="0 0 95.481 85.63198853020408" height="85.63198853020408" width="95.481"><g><svg viewBox="0 0 95.481 85.63198853020408" height="85.63198853020408" width="95.481"><g><svg viewBox="0 0 95.481 85.63198853020408" height="85.63198853020408" width="95.481"><g id="textblocktransform"><svg viewBox="0 0 95.481 85.63198853020408" height="85.63198853020408" width="95.481" id="textblock"><g><svg viewBox="0 0 95.481 85.63198853020408" height="85.63198853020408" width="95.481"><g><svg viewBox="0 0 95.481 85.63198853020408" height="85.63198853020408" width="95.481"><g><svg xmlns="http://www.w3.org/2000/svg" data-name="Layer 1" viewBox="1.5270166537925824 6.527016653792581 96.94610610181371 86.94596669241483" x="0" y="0" height="85.63198853020408" width="95.481" class="icon-icon-0" data-fill-palette-color="accent" id="icon-0"><g data-name="Group" fill="#993fa9" data-fill-palette-color="accent"><path data-name="Compound Path" d="M94.5 49a4 4 0 1 0-3.9-5H67.2a16.5 16.5 0 0 0-2.4-6H82.6a4 4 0 1 0 0-2H63.3l-0.3-0.4V15.5H77.1a4 4 0 1 0 0-1.9H62a1 1 0 0 0-1 1V33.9a16.6 16.6 0 0 0-7.1-3.1 1 1 0 0 0 0.1-0.3V22.4a4 4 0 1 0-2 0v8.1H50.9a16.8 16.8 0 0 0-4.9 0.7V14.4a4 4 0 1 0-2 0V31.5a1 1 0 0 0 0.1 0.5A16.5 16.5 0 0 0 38 36.7V22.4a4 4 0 1 0-2 0V37.5H12.5v-14h0a4 4 0 1 0-1.9 0h0v15a1 1 0 0 0 1 1H36.1l-0.4 0.9a13.5 13.5 0 0 0-10.9 6.2H17.4a4 4 0 1 0 0 2h6.4a13.4 13.4 0 0 0-1.1 5.4c0 0.2 0 0.4 0 0.6H9.4a4 4 0 1 0 0 2H22.8a13.5 13.5 0 0 0 2.8 6H17.4a4 4 0 1 0 0 2H27.7a13.5 13.5 0 0 0 8.4 3h0v15H21.9a4 4 0 1 0 0 1.9H37a1 1 0 0 0 1-1v-16h7V77.6a4 4 0 1 0 2 0V67.5h6V85.6a4 4 0 1 0 2 0V67.5h6V77.6a4 4 0 1 0 2 0V67.5h3.6A10.8 10.8 0 0 0 75.3 63H89.5V77h0a4 4 0 1 0 1.9 0h0V62a1 1 0 0 0-1-1h-14a10.7 10.7 0 0 0 0.6-7h5.6a4 4 0 1 0 0-2H76.4a10.9 10.9 0 0 0-7.6-6H90.6A4 4 0 0 0 94.5 49Zm-8-14a2 2 0 1 1-2 2A2 2 0 0 1 86.5 35ZM81 12.5a2 2 0 1 1-2 2A2 2 0 0 1 81 12.5Zm-30 6a2 2 0 1 1 2 2A2 2 0 0 1 51 18.5Zm-8-8a2 2 0 1 1 2 2A2 2 0 0 1 43 10.5Zm-33.5 9a2 2 0 1 1 2 2A2 2 0 0 1 9.5 19.5Zm4 30a2 2 0 1 1 2-2A2 2 0 0 1 13.5 49.5Zm-8 8a2 2 0 1 1 2-2A2 2 0 0 1 5.5 57.5ZM18 85.5a2 2 0 1 1 2-2A2 2 0 0 1 18 85.5Zm30-4a2 2 0 1 1-2-2A2 2 0 0 1 48 81.5Zm8 8a2 2 0 1 1-2-2A2 2 0 0 1 56 89.5Zm8-8a2 2 0 1 1-2-2A2 2 0 0 1 64 81.5ZM92.5 81a2 2 0 1 1-2-2A2 2 0 0 1 92.5 81Zm-6-30a2 2 0 1 1-2 2A2 2 0 0 1 86.5 51Zm8-8a2 2 0 1 1-2 2A2 2 0 0 1 94.5 43ZM35 18.5a2 2 0 1 1 2 2A2 2 0 0 1 35 18.5Zm-21.5 47a2 2 0 1 1 2-2A2 2 0 0 1 13.5 65.5Zm61.9-8.9a8.9 8.9 0 0 1-8.8 8.8H36.1a11.5 11.5 0 1 1 0-23.1h0.1a1 1 0 0 0 1.1-0.6 14.7 14.7 0 0 1 28.3 5 1 1 0 0 0 1 1A8.9 8.9 0 0 1 75.4 56.6Z" fill="#000000" data-fill-palette-color="accent"></path></g></svg></g></svg></g></svg></g></svg></g></svg></g></svg></g><defs></defs></svg><rect width="95.481" height="85.63198853020408" fill="none" stroke="none" visibility="hidden"></rect></g></svg></g></svg>